<?xml version="1.0" standalone="no"?>
<!DOCTYPE svg PUBLIC "-//W3C//DTD SVG 20010904//EN"
 "http://www.w3.org/TR/2001/REC-SVG-20010904/DTD/svg10.dtd">
<svg version="1.0" xmlns="http://www.w3.org/2000/svg"
 width="1143.000000pt" height="1280.000000pt" viewBox="0 0 1143.000000 1280.000000"
 preserveAspectRatio="xMidYMid meet">
<metadata>
Created by potrace 1.15, written by Peter Selinger 2001-2017
</metadata>
<g transform="translate(0.000000,1280.000000) scale(0.100000,-0.100000)"
fill="#000000" stroke="none">
<path d="M6320 12787 c-25 -8 -155 -56 -290 -107 -229 -88 -250 -94 -321 -95
-66 0 -84 -5 -151 -37 -41 -21 -92 -53 -113 -73 -21 -19 -48 -38 -59 -41 -12
-4 -160 -59 -331 -124 -300 -114 -997 -378 -1430 -542 -115 -44 -327 -124
-470 -178 -143 -54 -357 -135 -475 -180 -118 -45 -332 -126 -475 -180 -143
-54 -354 -134 -470 -178 -115 -44 -412 -156 -660 -250 -247 -94 -533 -202
-634 -240 l-185 -70 -17 -63 c-65 -236 -82 -510 -41 -665 12 -44 51 -143 88
-220 36 -76 470 -1014 964 -2084 494 -1070 1107 -2397 1363 -2950 255 -553
468 -1016 472 -1030 4 -14 11 -27 14 -30 4 -3 177 -372 384 -820 929 -2013
1047 -2264 1071 -2288 38 -39 117 -46 176 -16 25 12 1213 542 2640 1177 1427
635 2630 1171 2673 1191 65 30 77 32 72 17 -14 -45 109 -55 192 -17 68 32 150
96 188 147 17 22 39 50 50 63 12 14 135 74 299 147 266 118 281 126 310 167
51 72 64 123 65 257 1 137 75 758 90 763 27 9 78 51 98 81 31 46 29 106 -5
206 -20 59 -269 499 -954 1690 -974 1694 -1030 1792 -1713 3023 -344 618 -432
771 -446 767 -13 -4 -162 248 -739 1252 -398 692 -750 1295 -783 1340 -71 99
-113 138 -185 171 -66 30 -193 39 -262 19z m4901 -8911 c-42 -336 -52 -381
-115 -503 -49 -98 -70 -114 -272 -203 -102 -45 -187 -80 -189 -78 -2 2 4 31
14 64 46 147 65 407 51 708 l-5 108 275 122 c151 68 276 119 278 115 2 -4 -15
-154 -37 -333z m-901 -244 c0 -245 -27 -436 -92 -640 l-33 -104 -170 -74 c-93
-42 -467 -206 -830 -366 -641 -282 -1632 -720 -2780 -1228 -308 -136 -832
-370 -1164 -519 -333 -149 -606 -269 -608 -268 -5 6 -73 705 -73 754 0 27 6
57 13 66 6 9 255 124 552 255 297 132 812 360 1145 507 333 147 920 407 1305
577 385 170 925 409 1200 531 275 122 730 323 1010 448 281 125 513 228 518
228 4 1 7 -74 7 -167z"/>
<path d="M5583 1319 l-153 -81 0 32 c0 17 -4 30 -9 28 -5 -1 -115 -55 -244
-118 l-236 -115 -6 -46 c-6 -44 -9 -48 -56 -69 -45 -22 -58 -37 -43 -53 4 -3
25 3 47 14 40 21 56 16 57 -18 0 -7 1 -13 3 -13 1 0 108 56 237 124 220 116
235 126 241 156 4 17 11 35 15 40 5 4 80 45 166 89 114 60 155 86 151 97 -3 8
-8 14 -12 14 -3 -1 -75 -37 -158 -81z"/>
</g>
</svg>
